<svg width="22" height="20" viewBox="0 0 22 20" fill="none" xmlns="http://www.w3.org/2000/svg">
<path d="M20.7605 13.92L14.3605 2.4C13.5005 0.85 12.3105 0 11.0005 0C9.69046 0 8.50046 0.85 7.64046 2.4L1.24047 13.92C0.430466 15.39 0.340466 16.8 0.990466 17.91C1.64047 19.02 2.92047 19.63 4.60046 19.63H17.4005C19.0805 19.63 20.3605 19.02 21.0105 17.91C21.6605 16.8 21.5705 15.38 20.7605 13.92ZM10.2505 7C10.2505 6.59 10.5905 6.25 11.0005 6.25C11.4105 6.25 11.7505 6.59 11.7505 7V12C11.7505 12.41 11.4105 12.75 11.0005 12.75C10.5905 12.75 10.2505 12.41 10.2505 12V7ZM11.7105 15.71C11.6605 15.75 11.6105 15.79 11.5605 15.83C11.5005 15.87 11.4405 15.9 11.3805 15.92C11.3205 15.95 11.2605 15.97 11.1905 15.98C11.1305 15.99 11.0605 16 11.0005 16C10.9405 16 10.8705 15.99 10.8005 15.98C10.7405 15.97 10.6805 15.95 10.6205 15.92C10.5605 15.9 10.5005 15.87 10.4405 15.83C10.3905 15.79 10.3405 15.75 10.2905 15.71C10.1105 15.52 10.0005 15.26 10.0005 15C10.0005 14.74 10.1105 14.48 10.2905 14.29C10.3405 14.25 10.3905 14.21 10.4405 14.17C10.5005 14.13 10.5605 14.1 10.6205 14.08C10.6805 14.05 10.7405 14.03 10.8005 14.02C10.9305 13.99 11.0705 13.99 11.1905 14.02C11.2605 14.03 11.3205 14.05 11.3805 14.08C11.4405 14.1 11.5005 14.13 11.5605 14.17C11.6105 14.21 11.6605 14.25 11.7105 14.29C11.8905 14.48 12.0005 14.74 12.0005 15C12.0005 15.26 11.8905 15.52 11.7105 15.71Z" fill="#F7D716"/>
</svg>
