<svg width="48" height="48" viewBox="0 0 48 48" fill="none" xmlns="http://www.w3.org/2000/svg">
<path d="M42.1801 13.9591C40.4801 12.0791 37.6401 11.1391 33.5201 11.1391H33.0401V11.0591C33.0401 7.69906 33.0401 3.53906 25.5201 3.53906H22.4801C14.9601 3.53906 14.9601 7.71906 14.9601 11.0591V11.1591H14.4801C10.3401 11.1591 7.52008 12.0991 5.82008 13.9791C3.84007 16.1791 3.90007 19.1391 4.10007 21.1591L4.12007 21.2991L4.29753 23.1623C4.31179 23.3121 4.3922 23.4472 4.51782 23.53C4.93737 23.8065 5.92369 24.45 6.48008 24.7591C6.76008 24.9391 7.06008 25.0991 7.36008 25.2591C10.7801 27.1391 14.5401 28.3991 18.3601 29.0191C18.5401 30.8991 19.3601 33.0991 23.7401 33.0991C28.1201 33.0991 28.9801 30.9191 29.1201 28.9791C33.2001 28.3191 37.1401 26.8991 40.7001 24.8191C40.8201 24.7591 40.9001 24.6991 41.0001 24.6391C41.8564 24.1551 42.7473 23.5498 43.5439 22.9684C43.6565 22.8862 43.7288 22.7603 43.7442 22.6218L43.8001 22.1191L43.9001 21.1791C43.9201 21.0591 43.9201 20.9591 43.9401 20.8191C44.1001 18.7991 44.0601 16.0391 42.1801 13.9591ZM26.1801 27.6591C26.1801 29.7791 26.1801 30.0991 23.7201 30.0991C21.2601 30.0991 21.2601 29.7191 21.2601 27.6791V25.1591H26.1801V27.6591ZM17.8201 11.1391V11.0591C17.8201 7.65906 17.8201 6.39906 22.4801 6.39906H25.5201C30.1801 6.39906 30.1801 7.67906 30.1801 11.0591V11.1591H17.8201V11.1391Z" />
<path d="M42.5564 27.0791C42.9088 26.9084 43.314 27.1887 43.2786 27.5787L42.4797 36.3795C42.0597 40.3795 40.4197 44.4594 31.6197 44.4594H16.3797C7.57969 44.4594 5.93969 40.3795 5.51969 36.3995L4.75898 28.0316C4.72393 27.6462 5.11919 27.3658 5.47078 27.5276C7.45987 28.4433 12.7173 30.8 15.6163 31.4991C15.7814 31.539 15.9147 31.6561 15.9806 31.8127C17.1403 34.5696 19.8181 36.0395 23.7397 36.0395C27.6224 36.0395 30.3368 34.513 31.4987 31.7529C31.5646 31.5962 31.6977 31.4791 31.863 31.4393C34.9332 30.6984 40.4892 28.0805 42.5564 27.0791Z" />
</svg>
