<svg width="22" height="22" viewBox="0 0 22 22" fill="none" xmlns="http://www.w3.org/2000/svg">
<path d="M6.63536 1.83203H4.8937C2.8862 1.83203 1.83203 2.8862 1.83203 4.88453V6.6262C1.83203 8.62453 2.8862 9.6787 4.88453 9.6787H6.6262C8.62453 9.6787 9.6787 8.62453 9.6787 6.6262V4.88453C9.68786 2.8862 8.6337 1.83203 6.63536 1.83203Z" fill="#082032"/>
<path d="M17.1145 1.83203H15.3728C13.3745 1.83203 12.3203 2.8862 12.3203 4.88453V6.6262C12.3203 8.62453 13.3745 9.6787 15.3728 9.6787H17.1145C19.1128 9.6787 20.167 8.62453 20.167 6.6262V4.88453C20.167 2.8862 19.1128 1.83203 17.1145 1.83203Z" fill="#082032"/>
<path d="M17.1145 12.3125H15.3728C13.3745 12.3125 12.3203 13.3667 12.3203 15.365V17.1067C12.3203 19.105 13.3745 20.1592 15.3728 20.1592H17.1145C19.1128 20.1592 20.167 19.105 20.167 17.1067V15.365C20.167 13.3667 19.1128 12.3125 17.1145 12.3125Z" fill="#082032"/>
<path d="M6.63536 12.3125H4.8937C2.8862 12.3125 1.83203 13.3667 1.83203 15.365V17.1067C1.83203 19.1142 2.8862 20.1683 4.88453 20.1683H6.6262C8.62453 20.1683 9.6787 19.1142 9.6787 17.1158V15.3742C9.68786 13.3667 8.6337 12.3125 6.63536 12.3125Z" fill="#082032"/>
</svg>
