<svg width="28" height="28" viewBox="0 0 28 28" fill="none" xmlns="http://www.w3.org/2000/svg">
<path d="M18.4336 2.57841C17.9553 2.10007 17.127 2.42674 17.127 3.09174V7.16341C17.127 8.86674 18.5736 10.2784 20.3353 10.2784C21.4436 10.2901 22.9836 10.2901 24.302 10.2901C24.967 10.2901 25.317 9.50841 24.8503 9.04174C23.1703 7.35007 20.1603 4.30507 18.4336 2.57841Z" fill="#F6540E"/>
<path d="M23.917 11.8883H20.5453C17.7803 11.8883 15.5287 9.63658 15.5287 6.87158V3.49992C15.5287 2.85825 15.0037 2.33325 14.362 2.33325H9.41533C5.82199 2.33325 2.91699 4.66659 2.91699 8.83159V19.1683C2.91699 23.3333 5.82199 25.6666 9.41533 25.6666H18.5853C22.1787 25.6666 25.0837 23.3333 25.0837 19.1683V13.0549C25.0837 12.4133 24.5587 11.8883 23.917 11.8883ZM13.417 20.7083H8.75033C8.27199 20.7083 7.87533 20.3116 7.87533 19.8333C7.87533 19.3549 8.27199 18.9583 8.75033 18.9583H13.417C13.8953 18.9583 14.292 19.3549 14.292 19.8333C14.292 20.3116 13.8953 20.7083 13.417 20.7083ZM15.7503 16.0416H8.75033C8.27199 16.0416 7.87533 15.6449 7.87533 15.1666C7.87533 14.6883 8.27199 14.2916 8.75033 14.2916H15.7503C16.2287 14.2916 16.6253 14.6883 16.6253 15.1666C16.6253 15.6449 16.2287 16.0416 15.7503 16.0416Z" fill="#F6540E"/>
</svg>
