<svg width="28" height="28" viewBox="0 0 28 28" fill="none" xmlns="http://www.w3.org/2000/svg">
<path d="M19.6026 10.5H14.8776V17.7917C14.8776 18.27 14.4809 18.6667 14.0026 18.6667C13.5243 18.6667 13.1276 18.27 13.1276 17.7917V10.5H8.4026C4.66927 10.5 2.33594 12.8333 2.33594 16.5667V19.5883C2.33594 23.3333 4.66927 25.6667 8.4026 25.6667H19.5909C23.3243 25.6667 25.6576 23.3333 25.6576 19.6V16.5667C25.6693 12.8333 23.3359 10.5 19.6026 10.5Z" fill="#F6540E"/>
<path d="M14.8742 5.31969L17.2892 7.73469C17.4642 7.90969 17.6858 7.99135 17.9075 7.99135C18.1292 7.99135 18.3508 7.90969 18.5258 7.73469C18.8642 7.39635 18.8642 6.83635 18.5258 6.49802L14.6175 2.58969C14.2792 2.25135 13.7192 2.25135 13.3808 2.58969L9.4725 6.49802C9.13417 6.83635 9.13417 7.39635 9.4725 7.73469C9.81083 8.07302 10.3708 8.07302 10.7092 7.73469L13.1242 5.31969V10.4997H14.8742V5.31969Z" fill="#F6540E"/>
</svg>
