<svg width="20" height="20" viewBox="0 0 20 20" fill="none" xmlns="http://www.w3.org/2000/svg">
<path d="M9.99935 1.66602C7.81602 1.66602 6.04102 3.44102 6.04102 5.62435C6.04102 7.76602 7.71602 9.49935 9.89935 9.57435C9.96602 9.56602 10.0327 9.56602 10.0827 9.57435C10.0993 9.57435 10.1077 9.57435 10.1243 9.57435C10.1327 9.57435 10.1327 9.57435 10.141 9.57435C12.2743 9.49935 13.9493 7.76602 13.9577 5.62435C13.9577 3.44102 12.1827 1.66602 9.99935 1.66602Z" fill="white"/>
<path d="M14.2328 11.7914C11.9078 10.2414 8.11615 10.2414 5.77448 11.7914C4.71615 12.4997 4.13281 13.4581 4.13281 14.4831C4.13281 15.5081 4.71615 16.4581 5.76615 17.1581C6.93281 17.9414 8.46615 18.3331 9.99948 18.3331C11.5328 18.3331 13.0661 17.9414 14.2328 17.1581C15.2828 16.4497 15.8661 15.4997 15.8661 14.4664C15.8578 13.4414 15.2828 12.4914 14.2328 11.7914Z" fill="white"/>
</svg>
