<svg  height="32" viewBox="0 0 294 32" fill="none" xmlns="http://www.w3.org/2000/svg">
<rect opacity="0.2" x="40" width="4" height="32" rx="2" fill="white"/>
<rect opacity="0.2" width="4" height="32" rx="2" fill="white"/>
<rect opacity="0.2" x="50" y="8" width="4" height="16" rx="2" fill="white"/>
<rect opacity="0.2" x="10" y="8" width="4" height="16" rx="2" fill="white"/>
<rect opacity="0.2" x="60" y="4" width="4" height="24" rx="2" fill="white"/>
<rect opacity="0.2" x="20" y="4" width="4" height="24" rx="2" fill="white"/>
<rect opacity="0.2" x="70" y="8" width="4" height="16" rx="2" fill="white"/>
<rect opacity="0.2" x="30" y="8" width="4" height="16" rx="2" fill="white"/>
<rect opacity="0.2" x="80" width="4" height="32" rx="2" fill="white"/>
<rect opacity="0.2" x="90" y="8" width="4" height="16" rx="2" fill="white"/>
<rect opacity="0.2" x="100" y="4" width="4" height="24" rx="2" fill="white"/>
<rect opacity="0.2" x="110" y="8" width="4" height="16" rx="2" fill="white"/>
<rect opacity="0.2" x="120" width="4" height="32" rx="2" fill="white"/>
<rect opacity="0.2" x="130" y="8" width="4" height="16" rx="2" fill="white"/>
<rect opacity="0.2" x="140" y="4" width="4" height="24" rx="2" fill="white"/>
<rect opacity="0.2" x="150" y="8" width="4" height="16" rx="2" fill="white"/>
<rect opacity="0.2" x="160" width="4" height="32" rx="2" fill="white"/>
<rect opacity="0.2" x="170" y="8" width="4" height="16" rx="2" fill="white"/>
<rect opacity="0.2" x="210" y="8" width="4" height="16" rx="2" fill="white"/>
<rect opacity="0.2" x="290" y="8" width="4" height="16" rx="2" fill="white"/>
<rect opacity="0.2" x="250" y="8" width="4" height="16" rx="2" fill="white"/>
<rect opacity="0.2" x="180" y="4" width="4" height="24" rx="2" fill="white"/>
<rect opacity="0.2" x="260" y="4" width="4" height="24" rx="2" fill="white"/>
<rect opacity="0.2" x="220" y="4" width="4" height="24" rx="2" fill="white"/>
<rect opacity="0.2" x="190" y="8" width="4" height="16" rx="2" fill="white"/>
<rect opacity="0.2" x="270" y="8" width="4" height="16" rx="2" fill="white"/>
<rect opacity="0.2" x="230" y="8" width="4" height="16" rx="2" fill="white"/>
<rect opacity="0.2" x="200" width="4" height="32" rx="2" fill="white"/>
<rect opacity="0.2" x="280" width="4" height="32" rx="2" fill="white"/>
<rect opacity="0.2" x="240" width="4" height="32" rx="2" fill="white"/>
</svg>
