<svg width="100" height="100" viewBox="0 0 100 100" fill="none" xmlns="http://www.w3.org/2000/svg">
<path d="M50 100C77.6142 100 100 77.6142 100 50C100 22.3858 77.6142 0 50 0C22.3858 0 0 22.3858 0 50C0 77.6142 22.3858 100 50 100Z" fill="#38C222"/>
<path d="M44.3172 65C43.5168 65 42.7564 64.6875 42.1961 64.1406L30.8704 53.0851C29.7099 51.9522 29.7099 50.0771 30.8704 48.9442C32.031 47.8113 33.952 47.8113 35.1126 48.9442L44.3172 57.9292L64.8874 37.8497C66.048 36.7168 67.969 36.7168 69.1296 37.8497C70.2901 38.9826 70.2901 40.8577 69.1296 41.9906L46.4382 64.1406C45.8779 64.6875 45.1176 65 44.3172 65Z" fill="white"/>
</svg>
