<svg width="20" height="20" viewBox="0 0 20 20" fill="none" xmlns="http://www.w3.org/2000/svg">
<path d="M9.99995 4.16667C11.3472 4.16667 12.5843 4.62794 13.5719 5.39505L16.6028 2.50341C14.8406 0.949961 12.5338 0 9.99995 0C6.16028 0 2.83051 2.1666 1.15479 5.34154L4.52515 8.00232C5.34159 5.76614 7.48118 4.16667 9.99995 4.16667Z" fill="white"/>
<path d="M19.9134 11.2509C19.9655 10.8412 20 10.4232 20 9.99935C20 9.28447 19.9219 8.58837 19.7794 7.91602H10V12.0827H15.4052C14.9679 13.2192 14.1894 14.1808 13.1983 14.8489L16.5812 17.5196C18.3745 15.9455 19.6016 13.7413 19.9134 11.2509Z" fill="white"/>
<path d="M4.16667 10.0003C4.16667 9.29738 4.29738 8.62661 4.5252 8.00257L1.15484 5.3418C0.420278 6.7336 0 8.31706 0 10.0003C0 11.6646 0.412547 13.2305 1.13185 14.6111L4.50648 11.9469C4.29036 11.3373 4.16667 10.6839 4.16667 10.0003Z" fill="white"/>
<path d="M9.99999 15.834C7.46205 15.834 5.30867 14.2102 4.50647 11.9473L1.13184 14.6115C2.79937 17.8119 6.1415 20.0007 9.99999 20.0007C12.5231 20.0007 14.824 19.0633 16.5812 17.5209L13.1983 14.8502C12.2843 15.4664 11.1903 15.834 9.99999 15.834Z" fill="white"/>
<path opacity="0.1" d="M9.99993 19.7915C7.05686 19.7915 4.41053 18.5772 2.53955 16.6426C4.37106 18.698 7.03031 19.9998 9.99993 19.9998C12.9421 19.9998 15.5793 18.7237 17.4067 16.7005C15.5413 18.6037 12.915 19.7915 9.99993 19.7915Z" fill="white"/>
<path opacity="0.1" d="M10 11.875V12.0833H15.4052L15.4896 11.875H10Z" fill="white"/>
<path d="M19.9952 10.1219C19.9958 10.0809 19.9998 10.0405 19.9998 9.99938C19.9998 9.98773 19.998 9.97649 19.9979 9.96484C19.9974 10.0173 19.9947 10.0692 19.9952 10.1219Z" fill="white"/>
<path opacity="0.2" d="M10 7.91602V8.12435H19.8213C19.8082 8.05558 19.7939 7.98427 19.7794 7.91602H10Z" fill="white"/>
<path d="M19.7794 7.91667H10V12.0833H15.4052C14.5646 14.268 12.481 15.8333 10 15.8333C6.77836 15.8333 4.16667 13.2216 4.16667 10C4.16667 6.77831 6.77836 4.16667 10 4.16667C11.1682 4.16667 12.2449 4.52555 13.1571 5.11724C13.2967 5.20798 13.4408 5.29317 13.5719 5.39505L16.6029 2.50341L16.5345 2.45082C14.7808 0.930888 12.5029 0 10 0C4.47713 0 0 4.47713 0 10C0 15.5228 4.47713 20 10 20C15.0981 20 19.2962 16.1823 19.9134 11.2515C19.9655 10.8418 20 10.4239 20 10C20 9.28513 19.9219 8.58902 19.7794 7.91667Z" fill="url(#paint0_linear_589_12319)"/>
<path opacity="0.1" d="M13.1569 4.9094C12.2448 4.31772 11.168 3.95883 9.99984 3.95883C6.7782 3.95883 4.1665 6.57048 4.1665 9.79217C4.1665 9.82731 4.16698 9.85478 4.16759 9.88982C4.22379 6.71676 6.81334 4.16717 9.99984 4.16717C11.168 4.16717 12.2448 4.52605 13.1569 5.11774C13.2965 5.20848 13.4406 5.29367 13.5718 5.39555L16.6027 2.50391L13.5718 5.18722C13.4406 5.08534 13.2965 5.00014 13.1569 4.9094Z" fill="white"/>
<path opacity="0.2" d="M10 0.208333C12.4792 0.208333 14.7358 1.12366 16.4827 2.618L16.6029 2.50341L16.5112 2.42356C14.7575 0.903633 12.5029 0 10 0C4.47713 0 0 4.47713 0 10C0 10.0351 0.00488283 10.0691 0.00523883 10.1042C0.0616963 4.62987 4.51228 0.208333 10 0.208333Z" fill="white"/>
<defs>
<linearGradient id="paint0_linear_589_12319" x1="0" y1="10" x2="20" y2="10" gradientUnits="userSpaceOnUse">
<stop stop-color="white" stop-opacity="0.2"/>
<stop offset="1" stop-color="white" stop-opacity="0"/>
</linearGradient>
</defs>
</svg>
