<svg width="20" height="20" viewBox="0 0 28 28" fill="none" xmlns="http://www.w3.org/2000/svg">
<path d="M14.0002 25.6667C7.57183 25.6667 2.3335 20.4284 2.3335 14.0001C2.3335 7.57175 7.57183 2.33341 14.0002 2.33341C20.4285 2.33341 25.6668 7.57175 25.6668 14.0001C25.6668 20.4284 20.4285 25.6667 14.0002 25.6667ZM13.1252 18.6667C13.1252 19.1451 13.5218 19.5417 14.0002 19.5417C14.4785 19.5417 14.8752 19.1451 14.8752 18.6667V12.8334C14.8752 12.3551 14.4785 11.9584 14.0002 11.9584C13.5218 11.9584 13.1252 12.3551 13.1252 12.8334V18.6667ZM15.0735 8.89008C15.0152 8.73841 14.9335 8.62175 14.8285 8.50508C14.7118 8.40008 14.5835 8.31841 14.4435 8.26008C14.3035 8.20175 14.1518 8.16675 14.0002 8.16675C13.8485 8.16675 13.6968 8.20175 13.5568 8.26008C13.4168 8.31841 13.2885 8.40008 13.1718 8.50508C13.0668 8.62175 12.9852 8.73841 12.9268 8.89008C12.8685 9.03008 12.8335 9.18175 12.8335 9.33341C12.8335 9.48508 12.8685 9.63675 12.9268 9.77675C12.9852 9.91675 13.0668 10.0451 13.1718 10.1617C13.2885 10.2667 13.4168 10.3484 13.5568 10.4067C13.8368 10.5234 14.1635 10.5234 14.4435 10.4067C14.5835 10.3484 14.7118 10.2667 14.8285 10.1617C14.9335 10.0451 15.0152 9.91675 15.0735 9.77675C15.1318 9.63675 15.1668 9.48508 15.1668 9.33341C15.1668 9.18175 15.1318 9.03008 15.0735 8.89008Z" fill="#2B2B2B"/>
</svg>
