<svg width="18" height="19" viewBox="0 0 18 19" fill="none" xmlns="http://www.w3.org/2000/svg">
<path d="M8.94859 4.89453C6.47945 4.89453 4.43359 6.90511 4.43359 9.40952C4.43359 11.9139 6.44418 13.9245 8.94859 13.9245C11.453 13.9245 13.4636 11.8787 13.4636 9.40952C13.4636 6.94039 11.4177 4.89453 8.94859 4.89453ZM8.94859 12.3019C7.36128 12.3019 6.05617 10.9968 6.05617 9.40952C6.05617 7.82222 7.36128 6.51711 8.94859 6.51711C10.5359 6.51711 11.841 7.82222 11.841 9.40952C11.841 10.9968 10.5359 12.3019 8.94859 12.3019Z"/>
<path d="M13.6401 5.81148C14.2051 5.81148 14.663 5.3535 14.663 4.78855C14.663 4.22361 14.2051 3.76562 13.6401 3.76562C13.0752 3.76562 12.6172 4.22361 12.6172 4.78855C12.6172 5.3535 13.0752 5.81148 13.6401 5.81148Z" />
<path d="M16.2839 2.14152C15.3668 1.18914 14.0617 0.695312 12.5802 0.695312H5.31386C2.24507 0.695312 0.199219 2.74117 0.199219 5.80995V13.041C0.199219 14.5577 0.693046 15.8629 1.6807 16.8152C2.63308 17.7324 3.90292 18.1909 5.34913 18.1909H12.5449C14.0617 18.1909 15.3315 17.6971 16.2486 16.8152C17.201 15.8981 17.6948 14.593 17.6948 13.0763V5.80995C17.6948 4.32847 17.201 3.05863 16.2839 2.14152ZM16.1428 13.0763C16.1428 14.1697 15.7548 15.0516 15.1199 15.6512C14.4849 16.2509 13.6031 16.5683 12.5449 16.5683H5.34913C4.29093 16.5683 3.4091 16.2509 2.77417 15.6512C2.13925 15.0163 1.82179 14.1345 1.82179 13.041V5.80995C1.82179 4.75175 2.13925 3.86992 2.77417 3.235C3.37382 2.63535 4.29093 2.31789 5.34913 2.31789H12.6154C13.6736 2.31789 14.5555 2.63535 15.1904 3.27027C15.79 3.90519 16.1428 4.78702 16.1428 5.80995V13.0763Z"/>
</svg>
