<svg width="24" height="24" viewBox="0 0 24 24" fill="none" xmlns="http://www.w3.org/2000/svg">
<path d="M19.0698 14.24C18.7798 14.53 18.3198 14.53 18.0398 14.24C17.7498 13.95 17.7498 13.49 18.0398 13.21C20.0398 11.21 20.0398 7.95998 18.0398 5.96998C16.0398 3.97998 12.7898 3.96998 10.7998 5.96998C8.80978 7.96998 8.79978 11.22 10.7998 13.21C11.0898 13.5 11.0898 13.96 10.7998 14.24C10.5098 14.53 10.0498 14.53 9.76979 14.24C7.19979 11.67 7.19979 7.48998 9.76979 4.92998C12.3398 2.36998 16.5198 2.35998 19.0798 4.92998C21.6398 7.49998 21.6398 11.67 19.0698 14.24Z" fill="#2B2B2B" stroke="#2B2B2B" stroke-width="0.5"/>
<path d="M4.93022 9.75998C5.22022 9.46998 5.68022 9.46998 5.96022 9.75998C6.25022 10.05 6.25022 10.51 5.96022 10.79C3.96022 12.79 3.96022 16.04 5.96022 18.03C7.96022 20.02 11.2102 20.03 13.2002 18.03C15.1902 16.03 15.2002 12.78 13.2002 10.79C12.9102 10.5 12.9102 10.04 13.2002 9.75998C13.4902 9.46998 13.9502 9.46998 14.2302 9.75998C16.8002 12.33 16.8002 16.51 14.2302 19.07C11.6602 21.63 7.48022 21.64 4.92022 19.07C2.36022 16.5 2.36022 12.33 4.93022 9.75998Z" fill="#2B2B2B" stroke="#2B2B2B" stroke-width="0.5"/>
</svg>
