<svg width="20" height="20" viewBox="0 0 20 20" fill="none" xmlns="http://www.w3.org/2000/svg">
<path d="M15.8914 11.8673C15.6497 12.109 15.2664 12.109 15.0331 11.8673C14.7914 11.6257 14.7914 11.2423 15.0331 11.009C16.6997 9.34232 16.6997 6.63399 15.0331 4.97565C13.3664 3.31732 10.6581 3.30899 8.99974 4.97565C7.34141 6.64232 7.33307 9.35065 8.99974 11.009C9.24141 11.2507 9.24141 11.634 8.99974 11.8673C8.75807 12.109 8.37474 12.109 8.14141 11.8673C5.99974 9.72565 5.99974 6.24232 8.14141 4.10899C10.2831 1.97565 13.7664 1.96732 15.8997 4.10899C18.0331 6.25065 18.0331 9.72565 15.8914 11.8673Z" fill="#F6540E" stroke="#F6540E" stroke-width="0.5"/>
<path d="M4.10729 8.13242C4.34896 7.89076 4.73229 7.89076 4.96563 8.13242C5.20729 8.37409 5.20729 8.75742 4.96563 8.99075C3.29896 10.6574 3.29896 13.3658 4.96563 15.0241C6.63229 16.6824 9.34063 16.6908 10.999 15.0241C12.6573 13.3574 12.6656 10.6491 10.999 8.99075C10.7573 8.74909 10.7573 8.36576 10.999 8.13242C11.2406 7.89076 11.624 7.89076 11.8573 8.13242C13.999 10.2741 13.999 13.7574 11.8573 15.8908C9.71563 18.0241 6.23229 18.0324 4.09896 15.8908C1.96563 13.7491 1.96563 10.2741 4.10729 8.13242Z" fill="#F6540E" stroke="#F6540E" stroke-width="0.5"/>
</svg>
