<svg width="60" height="60" viewBox="0 0 60 60" fill="none" xmlns="http://www.w3.org/2000/svg">
<path d="M30 5C23.45 5 18.125 10.325 18.125 16.875C18.125 23.3 23.15 28.5 29.7 28.725C29.9 28.7 30.1 28.7 30.25 28.725C30.3 28.725 30.325 28.725 30.375 28.725C30.4 28.725 30.4 28.725 30.425 28.725C36.825 28.5 41.85 23.3 41.875 16.875C41.875 10.325 36.55 5 30 5Z" fill="#082032"/>
<path d="M42.7004 35.3742C35.7254 30.7242 24.3504 30.7242 17.3254 35.3742C14.1504 37.4992 12.4004 40.3742 12.4004 43.4492C12.4004 46.5242 14.1504 49.3742 17.3004 51.4742C20.8004 53.8242 25.4004 54.9992 30.0004 54.9992C34.6004 54.9992 39.2004 53.8242 42.7004 51.4742C45.8504 49.3492 47.6004 46.4992 47.6004 43.3992C47.5754 40.3242 45.8504 37.4742 42.7004 35.3742Z" fill="#082032"/>
</svg>
