<svg width="128" height="128" viewBox="0 0 128 128" fill="none" xmlns="http://www.w3.org/2000/svg">
<path d="M90.6667 10.6667H37.3334C22.6134 10.6667 10.6667 22.5601 10.6667 37.2267V69.1201V74.4534C10.6667 89.1201 22.6134 101.013 37.3334 101.013H45.3334C46.7734 101.013 48.6934 101.973 49.6001 103.147L57.6001 113.76C61.1201 118.453 66.8801 118.453 70.4001 113.76L78.4001 103.147C79.4134 101.813 81.0134 101.013 82.6667 101.013H90.6667C105.387 101.013 117.333 89.1201 117.333 74.4534V37.2267C117.333 22.5601 105.387 10.6667 90.6667 10.6667ZM42.6667 64.0001C39.6801 64.0001 37.3334 61.6001 37.3334 58.6667C37.3334 55.7334 39.7334 53.3334 42.6667 53.3334C45.6001 53.3334 48.0001 55.7334 48.0001 58.6667C48.0001 61.6001 45.6534 64.0001 42.6667 64.0001ZM64.0001 64.0001C61.0134 64.0001 58.6667 61.6001 58.6667 58.6667C58.6667 55.7334 61.0667 53.3334 64.0001 53.3334C66.9334 53.3334 69.3334 55.7334 69.3334 58.6667C69.3334 61.6001 66.9867 64.0001 64.0001 64.0001ZM85.3334 64.0001C82.3467 64.0001 80.0001 61.6001 80.0001 58.6667C80.0001 55.7334 82.4001 53.3334 85.3334 53.3334C88.2667 53.3334 90.6667 55.7334 90.6667 58.6667C90.6667 61.6001 88.3201 64.0001 85.3334 64.0001Z" fill="#F6540E"/>
</svg>
