<svg width="18" height="18" viewBox="0 0 18 18" fill="none" xmlns="http://www.w3.org/2000/svg">
<path d="M16.29 4.71007V5.58757C16.29 6.32257 15.9975 6.95257 15.48 7.32007C15.1575 7.56007 14.76 7.67257 14.3475 7.67257C14.0925 7.67257 13.8375 7.63507 13.575 7.54507L9.54004 6.20257V13.5001C9.54004 15.4651 7.94254 17.0626 5.97754 17.0626C4.01254 17.0626 2.41504 15.4651 2.41504 13.5001C2.41504 11.5351 4.01254 9.93757 5.97754 9.93757C6.92254 9.93757 7.77754 10.3126 8.41504 10.9126V3.00007C8.41504 2.27257 8.71504 1.64257 9.23254 1.26757C9.75004 0.900069 10.44 0.817569 11.13 1.04257L14.445 2.15257C15.465 2.49007 16.29 3.63757 16.29 4.71007Z" fill="#082032"/>
</svg>
