<svg width="32" height="32" viewBox="0 0 32 32" fill="none" xmlns="http://www.w3.org/2000/svg">
<path d="M11.9974 2.66602C8.50406 2.66602 5.66406 5.50602 5.66406 8.99935C5.66406 12.426 8.34406 15.1993 11.8374 15.3193C11.9441 15.306 12.0507 15.306 12.1307 15.3193C12.1574 15.3193 12.1707 15.3193 12.1974 15.3193C12.2107 15.3193 12.2107 15.3193 12.2241 15.3193C15.6374 15.1993 18.3174 12.426 18.3307 8.99935C18.3307 5.50602 15.4907 2.66602 11.9974 2.66602Z" fill="#F6540E"/>
<path d="M18.7772 18.8659C15.0572 16.3859 8.99052 16.3859 5.24385 18.8659C3.55052 19.9992 2.61719 21.5325 2.61719 23.1725C2.61719 24.8125 3.55052 26.3325 5.23052 27.4525C7.09719 28.7059 9.55052 29.3325 12.0039 29.3325C14.4572 29.3325 16.9105 28.7059 18.7772 27.4525C20.4572 26.3192 21.3905 24.7992 21.3905 23.1459C21.3772 21.5059 20.4572 19.9859 18.7772 18.8659Z" fill="#F6540E"/>
<path d="M26.6525 9.78615C26.8658 12.3728 25.0258 14.6395 22.4792 14.9461C22.4658 14.9461 22.4658 14.9461 22.4525 14.9461H22.4125C22.3325 14.9461 22.2525 14.9461 22.1858 14.9728C20.8925 15.0395 19.7058 14.6261 18.8125 13.8661C20.1858 12.6395 20.9725 10.7995 20.8125 8.79948C20.7192 7.71948 20.3458 6.73282 19.7858 5.89282C20.2925 5.63948 20.8792 5.47948 21.4792 5.42615C24.0925 5.19948 26.4258 7.14615 26.6525 9.78615Z" fill="#F6540E"/>
<path d="M29.3229 22.1199C29.2163 23.4132 28.3896 24.5332 27.0029 25.2932C25.6696 26.0265 23.9896 26.3732 22.3229 26.3332C23.2829 25.4665 23.8429 24.3865 23.9496 23.2399C24.0829 21.5865 23.2963 19.9999 21.7229 18.7332C20.8296 18.0265 19.7896 17.4665 18.6562 17.0532C21.6029 16.1999 25.3096 16.7732 27.5896 18.6132C28.8163 19.5999 29.4429 20.8399 29.3229 22.1199Z" fill="#F6540E"/>
</svg>
