<svg width="24" height="24" viewBox="0 0 24 24" fill="none" xmlns="http://www.w3.org/2000/svg">
<path d="M17.42 4.40994H5.38996L7.26996 2.52994C7.55996 2.23994 7.55996 1.75994 7.26996 1.46994C6.97996 1.17994 6.49996 1.17994 6.20996 1.46994L3.04996 4.62994C2.97996 4.69994 2.92996 4.77994 2.88996 4.86994C2.84996 4.95994 2.82996 5.05994 2.82996 5.15994C2.82996 5.25994 2.84996 5.35994 2.88996 5.44994C2.92996 5.53994 2.97996 5.61994 3.04996 5.68994L6.20996 8.84994C6.35996 8.99994 6.54996 9.06994 6.73996 9.06994C6.92996 9.06994 7.11996 8.99994 7.26996 8.84994C7.55996 8.55994 7.55996 8.07994 7.26996 7.78994L5.38996 5.90994H17.42C18.66 5.90994 19.67 6.91994 19.67 8.15994V11.4799C19.67 11.8899 20.01 12.2299 20.42 12.2299C20.83 12.2299 21.17 11.8899 21.17 11.4799V8.15994C21.17 6.08994 19.49 4.40994 17.42 4.40994Z" fill="#F6540E" stroke="#F6540E" stroke-width="0.5"/>
<path d="M21.17 18.84C21.17 18.74 21.15 18.64 21.11 18.55C21.07 18.46 21.02 18.38 20.95 18.31L17.79 15.15C17.5 14.86 17.02 14.86 16.73 15.15C16.44 15.44 16.44 15.92 16.73 16.21L18.61 18.09H6.57996C5.33996 18.09 4.32996 17.08 4.32996 15.84V12.52C4.32996 12.11 3.98996 11.77 3.57996 11.77C3.16996 11.77 2.82996 12.11 2.82996 12.52V15.84C2.82996 17.91 4.50996 19.59 6.57996 19.59H18.61L16.73 21.47C16.44 21.76 16.44 22.24 16.73 22.53C16.88 22.68 17.07 22.75 17.26 22.75C17.45 22.75 17.64 22.68 17.79 22.53L20.95 19.37C21.02 19.3 21.07 19.22 21.11 19.13C21.15 19.04 21.17 18.94 21.17 18.84Z" fill="#F6540E" stroke="#F6540E" stroke-width="0.5"/>
</svg>
