<svg width="28" height="28" viewBox="0 0 28 28" fill="none" xmlns="http://www.w3.org/2000/svg">
<path d="M19.8311 4.08276H8.16439C4.66439 4.08276 2.33105 5.83276 2.33105 9.9161V18.0828C2.33105 22.1661 4.66439 23.9161 8.16439 23.9161H19.8311C23.3311 23.9161 25.6644 22.1661 25.6644 18.0828V9.9161C25.6644 5.83276 23.3311 4.08276 19.8311 4.08276ZM20.3794 11.1878L16.7277 14.1044C15.9577 14.7228 14.9777 15.0261 13.9977 15.0261C13.0177 15.0261 12.0261 14.7228 11.2677 14.1044L7.61605 11.1878C7.24272 10.8844 7.18439 10.3244 7.47605 9.9511C7.77939 9.57776 8.32772 9.50776 8.70105 9.8111L12.3527 12.7278C13.2394 13.4394 14.7444 13.4394 15.6311 12.7278L19.2827 9.8111C19.6561 9.50776 20.2161 9.5661 20.5077 9.9511C20.8111 10.3244 20.7527 10.8844 20.3794 11.1878Z" fill="white"/>
</svg>
