<svg width="20" height="20" viewBox="0 0 20 20" fill="none" xmlns="http://www.w3.org/2000/svg">
<path fill-rule="evenodd" clip-rule="evenodd" d="M8.59 15.3795V5.11109C8.59 4.78391 8.68609 4.58891 8.87844 4.52594C9.29422 4.42531 9.70688 4.375 10.1164 4.375C11.0656 4.375 11.9498 4.60156 12.7688 5.05453C13.5878 5.5075 14.25 6.12578 14.7558 6.90906C15.2614 7.6925 15.5547 8.55594 15.6353 9.49984C16.0138 9.33625 16.417 9.25453 16.8452 9.25453C17.7137 9.25453 18.4567 9.56594 19.0741 10.1889C19.6914 10.8119 20.0002 11.5606 20.0002 12.4352C20.0002 13.3161 19.6914 14.068 19.0741 14.6908C18.4567 15.3137 17.7169 15.6252 16.8544 15.6252L8.75766 15.6158C8.70187 15.5969 8.65984 15.5623 8.63203 15.512C8.60391 15.4614 8.59 15.4173 8.59 15.3795ZM6.41234 15.1059C6.41234 15.452 6.64187 15.625 7.10109 15.625C7.56016 15.625 7.78969 15.452 7.78969 15.1059V5.66797C7.78969 5.13938 7.61984 4.77937 7.31125 4.73953C7.10219 4.7125 6.90859 4.71281 6.71016 4.88281C6.51156 5.05266 6.41234 5.35969 6.41234 5.66797V15.1059ZM4.27172 15.0775C4.27172 15.26 4.33687 15.3969 4.46719 15.4881C4.5975 15.5794 4.765 15.625 4.96969 15.625C5.16828 15.625 5.33109 15.5794 5.45828 15.4881C5.58547 15.3969 5.64906 15.26 5.64906 15.0775V9.25437C5.64906 9.05937 5.58234 8.89266 5.44891 8.75422C5.31547 8.61578 5.15578 8.54656 4.96969 8.54656C4.77734 8.54656 4.61297 8.61578 4.47641 8.75422C4.33984 8.89266 4.27172 9.05937 4.27172 9.25437V15.0775ZM2.14047 14.7756C2.14047 14.9581 2.20406 15.095 2.33125 15.1862C2.45844 15.2775 2.62125 15.3231 2.81984 15.3231C3.02453 15.3231 3.19047 15.2775 3.31781 15.1862C3.445 15.095 3.50859 14.9581 3.50859 14.7756V8.39547C3.50859 8.20672 3.44187 8.04469 3.30844 7.90937C3.175 7.77406 3.01219 7.70641 2.81984 7.70641C2.63375 7.70641 2.47391 7.77406 2.34062 7.90937C2.20719 8.04469 2.14047 8.20672 2.14047 8.39547V14.7756ZM0 13.6053C0 13.857 0.09 14.0473 0.269844 14.1762C0.449844 14.3052 0.642188 14.3508 0.846875 14.3131C1.03922 14.2753 1.17422 14.2061 1.25172 14.1055C1.32922 14.0048 1.36812 13.8381 1.36812 13.6053V10.8683C1.36812 10.6733 1.30141 10.5081 1.16797 10.3728C1.03453 10.2375 0.871719 10.1698 0.679375 10.1698C0.493281 10.1698 0.333438 10.2375 0.200156 10.3728C0.0667188 10.508 0 10.6733 0 10.8683V13.6053Z"/>
</svg>
