<svg width="18" height="18" viewBox="0 0 18 18" fill="none" xmlns="http://www.w3.org/2000/svg">
<path d="M10.4493 1.87269L11.9182 4.83008C12.1161 5.23909 12.6474 5.62711 13.0953 5.71101L15.7518 6.15147C17.4498 6.43463 17.8457 7.67212 16.6268 8.90961L14.5538 10.9966C14.21 11.3426 14.0121 12.0243 14.1267 12.5172L14.7204 15.0971C15.1892 17.1316 14.1058 17.9286 12.3244 16.8589L9.83469 15.3697C9.38675 15.0971 8.63669 15.0971 8.18875 15.3697L5.69899 16.8589C3.91762 17.9181 2.83421 17.1316 3.303 15.0971L3.89679 12.5172C3.99054 12.0138 3.79261 11.3322 3.44884 10.9861L1.37578 8.89912C0.156948 7.67212 0.552809 6.43463 2.25084 6.14099L4.90727 5.70052C5.35522 5.62711 5.88651 5.2286 6.08444 4.8196L7.55329 1.8622C8.35542 0.268147 9.64718 0.268147 10.4493 1.87269Z" />
</svg>
