<svg width="32" height="32" viewBox="0 0 32 32" fill="none" xmlns="http://www.w3.org/2000/svg">
<path d="M21.5841 2.66602H10.4107C5.5574 2.66602 2.66406 5.55935 2.66406 10.4127V21.586C2.66406 26.4393 5.5574 29.3327 10.4107 29.3327H21.5841C26.4374 29.3327 29.3307 26.4393 29.3307 21.586V10.4127C29.3307 5.55935 26.4374 2.66602 21.5841 2.66602ZM13.2907 19.866L10.2907 22.866C10.0907 23.066 9.8374 23.1593 9.58406 23.1593C9.33073 23.1593 9.06406 23.066 8.8774 22.866L7.8774 21.866C7.4774 21.4793 7.4774 20.8393 7.8774 20.4527C8.26406 20.066 8.89073 20.066 9.29073 20.4527L9.58406 20.746L11.8774 18.4527C12.2641 18.066 12.8907 18.066 13.2907 18.4527C13.6774 18.8393 13.6774 19.4793 13.2907 19.866ZM13.2907 10.5327L10.2907 13.5327C10.0907 13.7327 9.8374 13.826 9.58406 13.826C9.33073 13.826 9.06406 13.7327 8.8774 13.5327L7.8774 12.5327C7.4774 12.146 7.4774 11.506 7.8774 11.1193C8.26406 10.7327 8.89073 10.7327 9.29073 11.1193L9.58406 11.4127L11.8774 9.11935C12.2641 8.73268 12.8907 8.73268 13.2907 9.11935C13.6774 9.50602 13.6774 10.146 13.2907 10.5327ZM23.4107 22.1593H16.4107C15.8641 22.1593 15.4107 21.706 15.4107 21.1593C15.4107 20.6127 15.8641 20.1593 16.4107 20.1593H23.4107C23.9707 20.1593 24.4107 20.6127 24.4107 21.1593C24.4107 21.706 23.9707 22.1593 23.4107 22.1593ZM23.4107 12.826H16.4107C15.8641 12.826 15.4107 12.3727 15.4107 11.826C15.4107 11.2793 15.8641 10.826 16.4107 10.826H23.4107C23.9707 10.826 24.4107 11.2793 24.4107 11.826C24.4107 12.3727 23.9707 12.826 23.4107 12.826Z" fill="#F6540E"/>
</svg>
