<svg width="18" height="18" viewBox="0 0 18 18" fill="none" xmlns="http://www.w3.org/2000/svg">
<path d="M14.24 0.81998C14.24 2.40998 12.94 3.70998 11.35 3.70998H6.65004C5.06004 3.70998 3.76004 2.40998 3.76004 0.81998C3.76004 0.25998 3.16004 -0.0900202 2.66004 0.16998C1.25004 0.91998 0.290039 2.40998 0.290039 4.11998V13.53C0.290039 15.99 2.30004 18 4.76004 18H13.24C15.7 18 17.71 15.99 17.71 13.53V4.11998C17.71 2.40998 16.75 0.91998 15.34 0.16998C14.84 -0.0900202 14.24 0.25998 14.24 0.81998ZM9.38004 12.95H5.00004C4.59004 12.95 4.25004 12.61 4.25004 12.2C4.25004 11.79 4.59004 11.45 5.00004 11.45H9.38004C9.79004 11.45 10.13 11.79 10.13 12.2C10.13 12.61 9.79004 12.95 9.38004 12.95ZM12 8.94998H5.00004C4.59004 8.94998 4.25004 8.60998 4.25004 8.19998C4.25004 7.78998 4.59004 7.44998 5.00004 7.44998H12C12.41 7.44998 12.75 7.78998 12.75 8.19998C12.75 8.60998 12.41 8.94998 12 8.94998Z" fill="#F6540E"/>
</svg>
