<svg width="19" height="22" viewBox="0 0 19 22" fill="none" xmlns="http://www.w3.org/2000/svg">
<path d="M18.7207 5.28074V6.45074C18.7207 7.43074 18.3307 8.27074 17.6407 8.76074C17.2107 9.08074 16.6807 9.23074 16.1307 9.23074C15.7907 9.23074 15.4507 9.18074 15.1007 9.06074L9.7207 7.27074V17.0007C9.7207 19.6207 7.5907 21.7507 4.9707 21.7507C2.3507 21.7507 0.220703 19.6207 0.220703 17.0007C0.220703 14.3807 2.3507 12.2507 4.9707 12.2507C6.2307 12.2507 7.3707 12.7507 8.2207 13.5507V3.00074C8.2207 2.03074 8.6207 1.19074 9.3107 0.690743C10.0007 0.200743 10.9207 0.0907429 11.8407 0.390743L16.2607 1.87074C17.6207 2.32074 18.7207 3.85074 18.7207 5.28074Z" fill="#082032"/>
</svg>
