<svg width="38" height="44" viewBox="0 0 38 44" fill="none" xmlns="http://www.w3.org/2000/svg">
<path d="M37.4404 10.5595V12.8995C37.4404 14.8595 36.6604 16.5395 35.2804 17.5195C34.4204 18.1595 33.3604 18.4595 32.2604 18.4595C31.5804 18.4595 30.9004 18.3595 30.2004 18.1195L19.4404 14.5395V33.9995C19.4404 39.2395 15.1804 43.4995 9.94043 43.4995C4.70043 43.4995 0.44043 39.2395 0.44043 33.9995C0.44043 28.7595 4.70043 24.4995 9.94043 24.4995C12.4604 24.4995 14.7404 25.4995 16.4404 27.0995V5.99953C16.4404 4.05953 17.2404 2.37953 18.6204 1.37953C20.0004 0.399533 21.8404 0.179533 23.6804 0.779533L32.5204 3.73953C35.2404 4.63953 37.4404 7.69953 37.4404 10.5595Z" />
</svg>
