<svg width="14" height="14" viewBox="0 0 20 20" fill="none" xmlns="http://www.w3.org/2000/svg">
<path d="M11.4479 2.87147L12.9167 5.82886C13.1146 6.23786 13.6459 6.62589 14.0939 6.70979L16.7503 7.15025C18.4483 7.43341 18.8442 8.6709 17.6254 9.90839L15.5523 11.9953C15.2085 12.3414 15.0106 13.0231 15.1252 13.516L15.719 16.0958C16.1878 18.1304 15.1044 18.9274 13.323 17.8577L10.8332 16.3685C10.3853 16.0958 9.63523 16.0958 9.18728 16.3685L6.69753 17.8577C4.91616 18.9169 3.83275 18.1304 4.30153 16.0958L4.89532 13.516C4.98908 13.0126 4.79115 12.3309 4.44737 11.9849L2.37432 9.8979C1.15548 8.6709 1.55134 7.43341 3.24938 7.13977L5.90581 6.6993C6.35375 6.62589 6.88504 6.22738 7.08297 5.81838L8.55182 2.86098C9.35396 1.26693 10.6457 1.26693 11.4479 2.87147Z" fill="#F7D716"/>
</svg>
